<svg width="28" height="28" viewBox="0 0 28 28" fill="none" xmlns="http://www.w3.org/2000/svg">
<g id="bitcoin-icons:brush-filled">
<path id="Vector" d="M8.75016 5.83325H5.8335V12.8333H22.1668V5.83325H19.2502V9.33325C19.2502 9.48796 19.1887 9.63633 19.0793 9.74573C18.9699 9.85513 18.8215 9.91658 18.6668 9.91658C18.5121 9.91658 18.3637 9.85513 18.2543 9.74573C18.145 9.63633 18.0835 9.48796 18.0835 9.33325V5.83325H16.3335V11.0833C16.3335 11.238 16.272 11.3863 16.1626 11.4957C16.0532 11.6051 15.9049 11.6666 15.7502 11.6666C15.5955 11.6666 15.4471 11.6051 15.3377 11.4957C15.2283 11.3863 15.1668 11.238 15.1668 11.0833V5.83325H9.91683V8.16659C9.91683 8.32129 9.85537 8.46967 9.74598 8.57906C9.63658 8.68846 9.48821 8.74992 9.3335 8.74992C9.17879 8.74992 9.03041 8.68846 8.92102 8.57906C8.81162 8.46967 8.75016 8.32129 8.75016 8.16659V5.83325ZM5.8335 15.1666V13.9999H22.1668V15.1666C22.1668 15.7854 21.921 16.3789 21.4834 16.8165C21.0458 17.2541 20.4523 17.4999 19.8335 17.4999H16.3335V20.9999C16.3335 21.6188 16.0877 22.2122 15.6501 22.6498C15.2125 23.0874 14.619 23.3333 14.0002 23.3333C13.3813 23.3333 12.7878 23.0874 12.3502 22.6498C11.9127 22.2122 11.6668 21.6188 11.6668 20.9999V17.4999H8.16683C7.54799 17.4999 6.9545 17.2541 6.51691 16.8165C6.07933 16.3789 5.8335 15.7854 5.8335 15.1666Z" fill="#0B7F20"/>
</g>
</svg>
