<svg width="22" height="22" viewBox="0 0 22 22" fill="none" xmlns="http://www.w3.org/2000/svg">
<g id="mingcute:time-fill">
<g id="Group">
<path id="Vector" d="M10.9999 1.83337C16.0627 1.83337 20.1666 5.93729 20.1666 11C20.1666 16.0628 16.0627 20.1667 10.9999 20.1667C5.93717 20.1667 1.83325 16.0628 1.83325 11C1.83325 5.93729 5.93717 1.83337 10.9999 1.83337ZM10.9999 5.50004C10.7568 5.50004 10.5236 5.59662 10.3517 5.76853C10.1798 5.94043 10.0833 6.17359 10.0833 6.41671V11C10.0833 11.2431 10.1799 11.4763 10.3518 11.6481L13.1018 14.3981C13.2747 14.5651 13.5063 14.6575 13.7466 14.6554C13.987 14.6533 14.2169 14.5569 14.3868 14.387C14.5568 14.217 14.6532 13.9871 14.6553 13.7467C14.6574 13.5064 14.565 13.2748 14.398 13.102L11.9166 10.6205V6.41671C11.9166 6.17359 11.82 5.94043 11.6481 5.76853C11.4762 5.59662 11.243 5.50004 10.9999 5.50004Z" fill="#5F5F5F"/>
</g>
</g>
</svg>
