<svg width="18" height="19" viewBox="0 0 18 19" fill="none" xmlns="http://www.w3.org/2000/svg">
<g id="lets-icons:date-fill">
<g id="Group">
<path id="Vector" d="M1.5 7.31927C1.5 5.90477 1.5 5.19827 1.9395 4.75877C2.379 4.31927 3.0855 4.31927 4.5 4.31927H13.5C14.9145 4.31927 15.621 4.31927 16.0605 4.75877C16.5 5.19827 16.5 5.90477 16.5 7.31927C16.5 7.67252 16.5 7.84952 16.3905 7.95977C16.2802 8.06927 16.1025 8.06927 15.75 8.06927H2.25C1.89675 8.06927 1.71975 8.06927 1.6095 7.95977C1.5 7.84952 1.5 7.67177 1.5 7.31927ZM1.5 14.0693C1.5 15.4838 1.5 16.1903 1.9395 16.6298C2.379 17.0693 3.0855 17.0693 4.5 17.0693H13.5C14.9145 17.0693 15.621 17.0693 16.0605 16.6298C16.5 16.1903 16.5 15.4838 16.5 14.0693V10.3193C16.5 9.96602 16.5 9.78902 16.3905 9.67877C16.2802 9.56927 16.1025 9.56927 15.75 9.56927H2.25C1.89675 9.56927 1.71975 9.56927 1.6095 9.67877C1.5 9.78902 1.5 9.96677 1.5 10.3193V14.0693Z" fill="#5F5F5F"/>
<path id="Vector_2" d="M5.25 2.81927V5.06927M12.75 2.81927V5.06927" stroke="#5F5F5F" stroke-width="2" stroke-linecap="round"/>
</g>
</g>
</svg>
