<svg width="19" height="19" viewBox="0 0 19 19" fill="none" xmlns="http://www.w3.org/2000/svg">
<g id="weui:delete-filled">
<path id="Vector" fill-rule="evenodd" clip-rule="evenodd" d="M14.559 5.66064L13.9583 15.8734C13.9359 16.2554 13.7683 16.6145 13.4899 16.877C13.2114 17.1395 12.8432 17.2857 12.4605 17.2856H7.0395C6.65681 17.2857 6.28856 17.1395 6.01013 16.877C5.7317 16.6145 5.56414 16.2554 5.54175 15.8734L4.9425 5.66064H3.375V4.91064C3.375 4.81119 3.41451 4.71581 3.48484 4.64548C3.55516 4.57515 3.65054 4.53564 3.75 4.53564H15.75C15.8495 4.53564 15.9448 4.57515 16.0152 4.64548C16.0855 4.71581 16.125 4.81119 16.125 4.91064V5.66064H14.559ZM8.25 2.66064H11.25C11.3495 2.66064 11.4448 2.70015 11.5152 2.77048C11.5855 2.84081 11.625 2.93619 11.625 3.03564V3.78564H7.875V3.03564C7.875 2.93619 7.91451 2.84081 7.98483 2.77048C8.05516 2.70015 8.15054 2.66064 8.25 2.66064ZM7.5 7.53564L7.875 14.2856H9L8.7 7.53564H7.5ZM10.875 7.53564L10.5 14.2856H11.625L12 7.53564H10.875Z" fill="#E51B1B"/>
</g>
</svg>
