<svg width="25" height="25" viewBox="0 0 25 25" fill="none" xmlns="http://www.w3.org/2000/svg">
<g id="material-symbols-light:cancel">
<path id="Vector" d="M9.21836 17.1434L12.8184 13.5434L16.4184 17.1434L17.1264 16.4354L13.5264 12.8354L17.1264 9.23545L16.4184 8.52745L12.8184 12.1274L9.21836 8.52745L8.51036 9.23545L12.1104 12.8354L8.51036 16.4354L9.21836 17.1434ZM12.8214 21.8354C11.5774 21.8354 10.4074 21.5994 9.31136 21.1274C8.21603 20.6548 7.26303 20.0134 6.45236 19.2034C5.64169 18.3934 5.00003 17.4414 4.52736 16.3474C4.05469 15.2534 3.81836 14.0838 3.81836 12.8384C3.81836 11.5931 4.05469 10.4231 4.52736 9.32845C4.99936 8.23312 5.63969 7.28012 6.44836 6.46945C7.25703 5.65878 8.20936 5.01712 9.30536 4.54445C10.4014 4.07178 11.5714 3.83545 12.8154 3.83545C14.0594 3.83545 15.2294 4.07178 16.3254 4.54445C17.4207 5.01645 18.3737 5.65712 19.1844 6.46645C19.995 7.27578 20.6367 8.22812 21.1094 9.32345C21.582 10.4188 21.8184 11.5884 21.8184 12.8324C21.8184 14.0764 21.5824 15.2464 21.1104 16.3424C20.6384 17.4384 19.997 18.3914 19.1864 19.2014C18.3757 20.0114 17.4237 20.6531 16.3304 21.1264C15.237 21.5998 14.0674 21.8361 12.8214 21.8354Z" fill="#E51B1B"/>
</g>
</svg>
