<svg width="19" height="19" viewBox="0 0 19 19" fill="none" xmlns="http://www.w3.org/2000/svg">
<g id="ic:baseline-edit">
<path id="Vector" d="M3 13.723V16.5355H5.8125L14.1075 8.24052L11.295 5.42802L3 13.723ZM16.2825 6.06552C16.352 5.99614 16.4072 5.91372 16.4448 5.82299C16.4825 5.73226 16.5018 5.635 16.5018 5.53677C16.5018 5.43855 16.4825 5.34129 16.4448 5.25056C16.4072 5.15983 16.352 5.07741 16.2825 5.00802L14.5275 3.25302C14.4581 3.1835 14.3757 3.12834 14.285 3.0907C14.1942 3.05306 14.097 3.03369 13.9988 3.03369C13.9005 3.03369 13.8033 3.05306 13.7125 3.0907C13.6218 3.12834 13.5394 3.1835 13.47 3.25302L12.0975 4.62552L14.91 7.43802L16.2825 6.06552Z" fill="#0B7F20"/>
</g>
</svg>
