<svg width="24" height="25" viewBox="0 0 24 25" fill="none" xmlns="http://www.w3.org/2000/svg">
<g id="ic:round-image">
<path id="Vector" d="M21 19.8354V5.83545C21 4.73545 20.1 3.83545 19 3.83545H5C3.9 3.83545 3 4.73545 3 5.83545V19.8354C3 20.9354 3.9 21.8354 5 21.8354H19C20.1 21.8354 21 20.9354 21 19.8354ZM8.9 14.8154L11 17.3454L14.1 13.3554C14.3 13.0954 14.7 13.0954 14.9 13.3654L18.41 18.0454C18.4657 18.1197 18.4996 18.2081 18.508 18.3005C18.5163 18.393 18.4987 18.486 18.4572 18.5691C18.4157 18.6521 18.3519 18.722 18.2729 18.7708C18.1939 18.8196 18.1029 18.8454 18.01 18.8454H6.02C5.6 18.8454 5.37 18.3654 5.63 18.0354L8.12 14.8354C8.31 14.5754 8.69 14.5654 8.9 14.8154Z" fill="#5F5F5F"/>
</g>
</svg>
