<svg width="24" height="24" viewBox="0 0 24 24" fill="none" xmlns="http://www.w3.org/2000/svg">
<g id="ri:instagram-fill">
<path id="Vector" d="M13.0276 2.00012C14.1526 2.00312 14.7236 2.00912 15.2166 2.02312L15.4106 2.03012C15.6346 2.03812 15.8556 2.04812 16.1226 2.06012C17.1866 2.11012 17.9126 2.27812 18.5496 2.52512C19.2096 2.77912 19.7656 3.12312 20.3216 3.67812C20.8303 4.17785 21.2238 4.78259 21.4746 5.45012C21.7216 6.08712 21.8896 6.81312 21.9396 7.87812C21.9516 8.14412 21.9616 8.36512 21.9696 8.59012L21.9756 8.78412C21.9906 9.27612 21.9966 9.84712 21.9986 10.9721L21.9996 11.7181V13.0281C22.002 13.7575 21.9944 14.4869 21.9766 15.2161L21.9706 15.4101C21.9626 15.6351 21.9526 15.8561 21.9406 16.1221C21.8906 17.1871 21.7206 17.9121 21.4746 18.5501C21.2238 19.2176 20.8303 19.8224 20.3216 20.3221C19.8219 20.8308 19.2171 21.2243 18.5496 21.4751C17.9126 21.7221 17.1866 21.8901 16.1226 21.9401L15.4106 21.9701L15.2166 21.9761C14.7236 21.9901 14.1526 21.9971 13.0276 21.9991L12.2816 22.0001H10.9726C10.2429 22.0027 9.51312 21.995 8.78359 21.9771L8.58959 21.9711C8.3522 21.9621 8.11487 21.9518 7.87759 21.9401C6.81359 21.8901 6.08759 21.7221 5.44959 21.4751C4.78242 21.2242 4.17804 20.8307 3.67859 20.3221C3.16954 19.8225 2.7757 19.2177 2.52459 18.5501C2.27759 17.9131 2.10959 17.1871 2.05959 16.1221L2.02959 15.4101L2.02459 15.2161C2.00616 14.4869 1.99782 13.7575 1.99959 13.0281V10.9721C1.99682 10.2427 2.00416 9.51332 2.02159 8.78412L2.02859 8.59012C2.03659 8.36512 2.04659 8.14412 2.05859 7.87812C2.10859 6.81312 2.27659 6.08812 2.52359 5.45012C2.77529 4.78232 3.16982 4.17756 3.67959 3.67812C4.17875 3.16967 4.78278 2.7762 5.44959 2.52512C6.08759 2.27812 6.81259 2.11012 7.87759 2.06012C8.14359 2.04812 8.36559 2.03812 8.58959 2.03012L8.78359 2.02412C9.51278 2.00635 10.2422 1.99869 10.9716 2.00112L13.0276 2.00012ZM11.9996 7.00012C10.6735 7.00012 9.40174 7.52691 8.46406 8.46459C7.52638 9.40227 6.99959 10.674 6.99959 12.0001C6.99959 13.3262 7.52638 14.598 8.46406 15.5357C9.40174 16.4733 10.6735 17.0001 11.9996 17.0001C13.3257 17.0001 14.5974 16.4733 15.5351 15.5357C16.4728 14.598 16.9996 13.3262 16.9996 12.0001C16.9996 10.674 16.4728 9.40227 15.5351 8.46459C14.5974 7.52691 13.3257 7.00012 11.9996 7.00012ZM11.9996 9.00012C12.3936 9.00006 12.7837 9.07759 13.1477 9.22829C13.5117 9.379 13.8424 9.59992 14.1211 9.87845C14.3997 10.157 14.6207 10.4877 14.7715 10.8516C14.9224 11.2156 15 11.6057 15.0001 11.9996C15.0002 12.3936 14.9226 12.7837 14.7719 13.1477C14.6212 13.5117 14.4003 13.8425 14.1218 14.1211C13.8432 14.3997 13.5126 14.6207 13.1486 14.7716C12.7847 14.9224 12.3946 15.0001 12.0006 15.0001C11.2049 15.0001 10.4419 14.6841 9.87927 14.1214C9.31666 13.5588 9.00059 12.7958 9.00059 12.0001C9.00059 11.2045 9.31666 10.4414 9.87927 9.8788C10.4419 9.31619 11.2049 9.00012 12.0006 9.00012M17.2506 5.50012C16.9191 5.50012 16.6011 5.63182 16.3667 5.86624C16.1323 6.10066 16.0006 6.4186 16.0006 6.75012C16.0006 7.08164 16.1323 7.39959 16.3667 7.63401C16.6011 7.86843 16.9191 8.00012 17.2506 8.00012C17.5821 8.00012 17.9001 7.86843 18.1345 7.63401C18.3689 7.39959 18.5006 7.08164 18.5006 6.75012C18.5006 6.4186 18.3689 6.10066 18.1345 5.86624C17.9001 5.63182 17.5821 5.50012 17.2506 5.50012Z" fill="black"/>
</g>
</svg>
