<svg width="24" height="25" viewBox="0 0 24 25" fill="none" xmlns="http://www.w3.org/2000/svg">
<g id="mdi:location">
<path id="Vector" d="M12 12.0693C11.337 12.0693 10.7011 11.8059 10.2322 11.337C9.76339 10.8682 9.5 10.2323 9.5 9.56927C9.5 8.90623 9.76339 8.27035 10.2322 7.80151C10.7011 7.33267 11.337 7.06927 12 7.06927C12.663 7.06927 13.2989 7.33267 13.7678 7.80151C14.2366 8.27035 14.5 8.90623 14.5 9.56927C14.5 9.89758 14.4353 10.2227 14.3097 10.526C14.1841 10.8293 13.9999 11.1049 13.7678 11.337C13.5356 11.5692 13.26 11.7533 12.9567 11.879C12.6534 12.0046 12.3283 12.0693 12 12.0693ZM12 2.56927C10.1435 2.56927 8.36301 3.30677 7.05025 4.61953C5.7375 5.93228 5 7.71276 5 9.56927C5 14.8193 12 22.5693 12 22.5693C12 22.5693 19 14.8193 19 9.56927C19 7.71276 18.2625 5.93228 16.9497 4.61953C15.637 3.30677 13.8565 2.56927 12 2.56927Z" fill="black"/>
</g>
</svg>
