<svg width="25" height="24" viewBox="0 0 25 24" fill="none" xmlns="http://www.w3.org/2000/svg">
<g id="tdesign:money">
<path id="Vector" d="M12.5 12.5C11.5717 12.5 10.6815 12.8687 10.0251 13.5251C9.36875 14.1815 9 15.0717 9 16C9 16.9283 9.36875 17.8185 10.0251 18.4749C10.6815 19.1313 11.5717 19.5 12.5 19.5C13.4283 19.5 14.3185 19.1313 14.9749 18.4749C15.6313 17.8185 16 16.9283 16 16C16 15.0717 15.6313 14.1815 14.9749 13.5251C14.3185 12.8687 13.4283 12.5 12.5 12.5ZM11 16C11 15.6022 11.158 15.2206 11.4393 14.9393C11.7206 14.658 12.1022 14.5 12.5 14.5C12.8978 14.5 13.2794 14.658 13.5607 14.9393C13.842 15.2206 14 15.6022 14 16C14 16.3978 13.842 16.7794 13.5607 17.0607C13.2794 17.342 12.8978 17.5 12.5 17.5C12.1022 17.5 11.7206 17.342 11.4393 17.0607C11.158 16.7794 11 16.3978 11 16Z" fill="#1D74D8"/>
<path id="Vector_2" d="M18.026 5.11606L14.847 0.659058L3.158 9.99706L2.51 9.99006V10.0001H2V22.0001H23V10.0001H22.038L20.124 4.40106L18.026 5.11606ZM19.925 10.0001H9.897L17.366 7.45406L18.888 6.96706L19.925 10.0001ZM16.05 5.79006L8.34 8.41806L14.446 3.54006L16.05 5.79006ZM4 18.1691V13.8291C4.42218 13.6801 4.80565 13.4385 5.12231 13.122C5.43896 12.8055 5.68077 12.4222 5.83 12.0001H19.17C19.3191 12.4223 19.5609 12.8059 19.8775 13.1225C20.1942 13.4392 20.5777 13.681 21 13.8301V18.1701C20.5777 18.3192 20.1942 18.5609 19.8775 18.8776C19.5609 19.1942 19.3191 19.5778 19.17 20.0001H5.832C5.68218 19.5777 5.43996 19.1942 5.12302 18.8774C4.80607 18.5607 4.4224 18.3186 4 18.1691Z" fill="#1D74D8"/>
</g>
</svg>
