<svg width="23" height="22" viewBox="0 0 23 22" fill="none" xmlns="http://www.w3.org/2000/svg">
<g id="Group">
<path id="Vector" d="M12.4863 3.83276C12.8705 3.61481 13.1718 3.27578 13.3431 2.86859C13.5143 2.4614 13.546 2.00896 13.4331 1.58189C13.3201 1.15482 13.069 0.777147 12.7189 0.507827C12.3687 0.238508 11.9392 0.0926922 11.4975 0.0931407C11.0557 0.0935892 10.6266 0.240276 10.277 0.510306C9.92735 0.780337 9.67698 1.15852 9.56493 1.58581C9.45287 2.01311 9.48544 2.46549 9.65754 2.87233C9.82965 3.27918 10.1316 3.61759 10.5163 3.83476L10.5063 3.85276C9.85128 5.21976 8.94128 7.17776 7.53628 7.91276C6.38228 8.51576 4.72628 8.21276 3.49628 7.98676C3.47655 7.70707 3.37882 7.43852 3.21419 7.21156C3.04955 6.9846 2.8246 6.80832 2.56486 6.70274C2.30511 6.59716 2.02097 6.56649 1.74468 6.61421C1.46839 6.66194 1.211 6.78614 1.00173 6.97274C0.792455 7.15934 0.63967 7.40086 0.560709 7.6699C0.481749 7.93893 0.479774 8.22471 0.555009 8.49482C0.630245 8.76492 0.779678 9.00852 0.986354 9.198C1.19303 9.38747 1.44867 9.51522 1.72428 9.56676L4.67228 17.1768C4.89091 17.7409 5.27501 18.2258 5.77418 18.5678C6.27334 18.9097 6.86423 19.0927 7.46928 19.0928H15.5293C16.1343 19.0927 16.7252 18.9097 17.2244 18.5678C17.7236 18.2258 18.1077 17.7409 18.3263 17.1768L21.2733 9.56676C21.5472 9.51579 21.8014 9.38957 22.0076 9.20222C22.2138 9.01488 22.3637 8.77383 22.4406 8.50608C22.5175 8.23832 22.5183 7.95445 22.4429 7.68627C22.3675 7.41808 22.219 7.17618 22.0139 6.98768C21.8088 6.79917 21.5552 6.6715 21.2816 6.61898C21.0081 6.56646 20.7253 6.59117 20.4649 6.69032C20.2046 6.78947 19.977 6.95916 19.8077 7.18037C19.6384 7.40158 19.534 7.66557 19.5063 7.94276C18.2473 8.10576 16.6243 8.31376 15.4623 7.70676C14.0853 6.98676 13.1623 5.16376 12.4863 3.83276Z" fill="#E5A51B"/>
</g>
</svg>
