<svg width="13" height="13" viewBox="0 0 13 13" fill="none" xmlns="http://www.w3.org/2000/svg">
<g id="svg-spinners:3-dots-bounce" clip-path="url(#clip0_2638_421)">
<path id="Vector" d="M8 10.7856C8 9.95722 7.32843 9.28564 6.5 9.28564C5.67157 9.28564 5 9.95722 5 10.7856C5 11.6141 5.67157 12.2856 6.5 12.2856C7.32843 12.2856 8 11.6141 8 10.7856Z" fill="black"/>
<path id="Vector_2" d="M8 6.78564C8 5.95722 7.32843 5.28564 6.5 5.28564C5.67157 5.28564 5 5.95722 5 6.78564C5 7.61407 5.67157 8.28564 6.5 8.28564C7.32843 8.28564 8 7.61407 8 6.78564Z" fill="black"/>
<path id="Vector_3" d="M8 2.78564C8 1.95722 7.32843 1.28564 6.5 1.28564C5.67157 1.28564 5 1.95722 5 2.78564C5 3.61407 5.67157 4.28564 6.5 4.28564C7.32843 4.28564 8 3.61407 8 2.78564Z" fill="black"/>
</g>
<defs>
<clipPath id="clip0_2638_421">
<rect width="12" height="12" fill="white" transform="translate(0.5 12.7856) rotate(-90)"/>
</clipPath>
</defs>
</svg>
