<svg width="24" height="24" viewBox="0 0 24 24" fill="none" xmlns="http://www.w3.org/2000/svg">
<g id="tdesign:delete-time-filled">
<path id="Vector" d="M7.5 3H16.5V1H7.5V3ZM22 6V4H2V6H4.029L4.529 23H12.499C11.5237 21.7027 10.9975 20.123 11 18.5V8H13V13.4C13.7014 12.6419 14.5522 12.0373 15.4988 11.6243C16.4454 11.2112 17.4672 10.9987 18.5 11C18.9507 11.0007 19.3907 11.0393 19.82 11.116L19.972 6H22Z" fill="#5F5F5F"/>
<path id="Vector_2" d="M13 18.5C13 17.7777 13.1423 17.0625 13.4187 16.3952C13.6951 15.728 14.1002 15.1216 14.6109 14.6109C15.1216 14.1002 15.728 13.6951 16.3952 13.4187C17.0625 13.1423 17.7777 13 18.5 13C19.2223 13 19.9375 13.1423 20.6048 13.4187C21.272 13.6951 21.8784 14.1002 22.3891 14.6109C22.8998 15.1216 23.3049 15.728 23.5813 16.3952C23.8577 17.0625 24 17.7777 24 18.5C24 19.9587 23.4205 21.3576 22.3891 22.3891C21.3576 23.4205 19.9587 24 18.5 24C17.0413 24 15.6424 23.4205 14.6109 22.3891C13.5795 21.3576 13 19.9587 13 18.5ZM20.914 19.5L19.5 18.086V16.252H17.5V18.914L19.5 20.914L20.914 19.5Z" fill="#5F5F5F"/>
</g>
</svg>
