<svg width="17" height="17" viewBox="0 0 17 17" fill="none" xmlns="http://www.w3.org/2000/svg">
<g id="subway:round-arrow-1" clip-path="url(#clip0_2260_1605)">
<path id="Vector" d="M14.7902 3.5292C13.3277 1.8792 11.1996 0.835449 8.81836 0.835449C4.39961 0.835449 0.818359 4.4167 0.818359 8.83545H2.81836C2.81836 5.51982 5.50273 2.83545 8.81836 2.83545C10.6465 2.83545 12.2684 3.66357 13.3652 4.9542L11.484 6.83545H16.8184V1.50107L14.7902 3.5292ZM8.81836 14.8354C6.99023 14.8354 5.36836 14.0073 4.27148 12.7167L6.15273 10.8354H0.818359V16.1698L2.84648 14.1417C4.30898 15.7917 6.44023 16.8354 8.81836 16.8354C13.2371 16.8354 16.8184 13.2542 16.8184 8.83545H14.8184C14.8184 12.1511 12.134 14.8354 8.81836 14.8354Z" fill="#5F5F5F"/>
</g>
<defs>
<clipPath id="clip0_2260_1605">
<rect width="16" height="16" fill="white" transform="translate(0.818359 0.835449)"/>
</clipPath>
</defs>
</svg>
