<svg width="25" height="24" viewBox="0 0 25 24" fill="none" xmlns="http://www.w3.org/2000/svg">
<g id="mingcute:vip-1-fill">
<g id="Group">
<path id="Vector" fill-rule="evenodd" clip-rule="evenodd" d="M17.9201 3C18.2448 2.99997 18.5646 3.07898 18.8519 3.23021C19.1392 3.38144 19.3854 3.60034 19.5691 3.868L19.6561 4.008L22.9901 9.84C23.1937 10.196 23.2829 10.6059 23.2457 11.0143C23.2085 11.4226 23.0467 11.8097 22.7821 12.123L22.6681 12.246L13.3851 21.529C13.1674 21.7467 12.877 21.8764 12.5696 21.8931C12.2621 21.9099 11.9593 21.8127 11.7191 21.62L11.6171 21.53L2.33415 12.246C2.04417 11.9562 1.85028 11.5842 1.77874 11.1805C1.70719 10.7768 1.76144 10.3608 1.93415 9.989L2.01215 9.839L5.34515 4.007C5.50623 3.72508 5.73354 3.48661 6.00743 3.31221C6.28132 3.13781 6.59355 3.03271 6.91715 3.006L7.08015 3H17.9201ZM7.79315 9.293C7.60568 9.48053 7.50036 9.73484 7.50036 10C7.50036 10.2652 7.60568 10.5195 7.79315 10.707L11.6161 14.53C11.7322 14.6461 11.87 14.7382 12.0217 14.8011C12.1734 14.8639 12.336 14.8962 12.5001 14.8962C12.6643 14.8962 12.8269 14.8639 12.9786 14.8011C13.1303 14.7382 13.2681 14.6461 13.3841 14.53L17.2071 10.707C17.3027 10.6148 17.3788 10.5044 17.4312 10.3824C17.4837 10.2604 17.5112 10.1292 17.5124 9.9964C17.5136 9.86362 17.4882 9.73194 17.438 9.60905C17.3877 9.48615 17.3134 9.3745 17.2195 9.28061C17.1256 9.18671 17.014 9.11246 16.8911 9.06218C16.7682 9.0119 16.6365 8.9866 16.5037 8.98775C16.371 8.9889 16.2397 9.01649 16.1177 9.0689C15.9957 9.12131 15.8854 9.19749 15.7931 9.293L12.5001 12.586L9.20715 9.293C9.01962 9.10553 8.76531 9.00021 8.50015 9.00021C8.23498 9.00021 7.98068 9.10553 7.79315 9.293Z" fill="#E51B1B"/>
</g>
</g>
</svg>
