<svg width="32" height="32" viewBox="0 0 32 32" fill="none" xmlns="http://www.w3.org/2000/svg">
<g id="iconoir:wallet-solid">
<g id="Group">
<path id="Vector" fill-rule="evenodd" clip-rule="evenodd" d="M6.66667 8.33337C5.69421 8.33337 4.76158 8.71968 4.07394 9.40732C3.38631 10.0949 3 11.0276 3 12V24C3 24.9725 3.38631 25.9051 4.07394 26.5928C4.76158 27.2804 5.69421 27.6667 6.66667 27.6667H25.3333C26.3058 27.6667 27.2384 27.2804 27.9261 26.5928C28.6137 25.9051 29 24.9725 29 24V12C29 11.0276 28.6137 10.0949 27.9261 9.40732C27.2384 8.71968 26.3058 8.33337 25.3333 8.33337H6.66667ZM22 16.3334C21.558 16.3334 21.1341 16.509 20.8215 16.8215C20.5089 17.1341 20.3333 17.558 20.3333 18C20.3333 18.4421 20.5089 18.866 20.8215 19.1786C21.1341 19.4911 21.558 19.6667 22 19.6667C22.442 19.6667 22.866 19.4911 23.1785 19.1786C23.4911 18.866 23.6667 18.4421 23.6667 18C23.6667 17.558 23.4911 17.1341 23.1785 16.8215C22.866 16.509 22.442 16.3334 22 16.3334Z" fill="#11AB2D"/>
<path id="Vector_2" d="M21.98 4.092C22.3748 3.9868 22.7884 3.97371 23.1891 4.05375C23.5897 4.13378 23.9666 4.3048 24.2907 4.55361C24.6147 4.80241 24.8773 5.12235 25.058 5.48873C25.2388 5.8551 25.333 6.25812 25.3333 6.66667H12L21.98 4.092Z" fill="#11AB2D"/>
</g>
</g>
</svg>
