<svg width="24" height="24" viewBox="0 0 24 24" fill="none" xmlns="http://www.w3.org/2000/svg">
<g id="ri:whatsapp-fill">
<path id="Vector" d="M12.001 2.00012C17.524 2.00012 22.001 6.47712 22.001 12.0001C22.001 17.5231 17.524 22.0001 12.001 22.0001C10.2337 22.0032 8.49757 21.5355 6.97099 20.6451L2.00499 22.0001L3.35699 17.0321C2.46595 15.5051 1.99789 13.7681 2.00099 12.0001C2.00099 6.47712 6.47799 2.00012 12.001 2.00012ZM8.59299 7.30012L8.39299 7.30812C8.26368 7.31703 8.13734 7.351 8.02099 7.40812C7.91257 7.46963 7.81355 7.54642 7.72699 7.63612C7.60699 7.74912 7.53899 7.84712 7.46599 7.94212C7.09611 8.42303 6.89696 9.01344 6.89999 9.62012C6.90199 10.1101 7.02999 10.5871 7.22999 11.0331C7.63899 11.9351 8.31199 12.8901 9.19999 13.7751C9.41399 13.9881 9.62399 14.2021 9.84999 14.4011C10.9534 15.3725 12.2683 16.0731 13.69 16.4471L14.258 16.5341C14.443 16.5441 14.628 16.5301 14.814 16.5211C15.1052 16.5058 15.3895 16.4269 15.647 16.2901C15.7778 16.2225 15.9056 16.1491 16.03 16.0701C16.03 16.0701 16.0723 16.0415 16.155 15.9801C16.29 15.8801 16.373 15.8091 16.485 15.6921C16.569 15.6055 16.639 15.5048 16.695 15.3901C16.773 15.2271 16.851 14.9161 16.883 14.6571C16.907 14.4591 16.9 14.3511 16.897 14.2841C16.893 14.1771 16.804 14.0661 16.707 14.0191L16.125 13.7581C16.125 13.7581 15.255 13.3791 14.723 13.1371C14.6673 13.1129 14.6077 13.099 14.547 13.0961C14.4786 13.089 14.4094 13.0966 14.3442 13.1185C14.279 13.1404 14.2192 13.1761 14.169 13.2231C14.164 13.2211 14.097 13.2781 13.374 14.1541C13.3325 14.2099 13.2753 14.252 13.2098 14.2752C13.1443 14.2983 13.0733 14.3014 13.006 14.2841C12.9408 14.2668 12.877 14.2447 12.815 14.2181C12.691 14.1661 12.648 14.1461 12.563 14.1101C11.9889 13.86 11.4574 13.5216 10.988 13.1071C10.862 12.9971 10.745 12.8771 10.625 12.7611C10.2316 12.3843 9.88874 11.9581 9.60499 11.4931L9.54599 11.3981C9.50425 11.3339 9.47003 11.2651 9.44399 11.1931C9.40599 11.0461 9.50499 10.9281 9.50499 10.9281C9.50499 10.9281 9.74799 10.6621 9.86099 10.5181C9.97099 10.3781 10.064 10.2421 10.124 10.1451C10.242 9.95512 10.279 9.76012 10.217 9.60912C9.93699 8.92512 9.64766 8.24479 9.34899 7.56812C9.28999 7.43412 9.11499 7.33812 8.95599 7.31912C8.90199 7.31246 8.84799 7.30712 8.79399 7.30312C8.65972 7.29542 8.52508 7.29676 8.39099 7.30712L8.59299 7.30012Z" fill="black"/>
</g>
</svg>
