<svg width="25" height="25" viewBox="0 0 25 25" fill="none" xmlns="http://www.w3.org/2000/svg">
<g id="iconamoon:zoom-in-fill">
<path id="Vector" fill-rule="evenodd" clip-rule="evenodd" d="M2.81836 11.8355C2.81852 10.3978 3.16306 8.98116 3.82315 7.70403C4.48324 6.42691 5.43968 5.3265 6.61238 4.49492C7.78508 3.66333 9.13994 3.12478 10.5635 2.92434C11.9871 2.72389 13.438 2.86739 14.7947 3.34283C16.1515 3.81826 17.3746 4.61179 18.3616 5.65699C19.3487 6.70218 20.0711 7.96863 20.4682 9.35032C20.8653 10.732 20.9256 12.1887 20.6442 13.5985C20.3627 15.0083 19.7476 16.3302 18.8504 17.4535L22.5254 21.1285C22.7075 21.3171 22.8083 21.5697 22.806 21.8319C22.8038 22.0941 22.6986 22.3449 22.5132 22.5303C22.3278 22.7157 22.077 22.8208 21.8148 22.8231C21.5526 22.8254 21.3 22.7246 21.1114 22.5425L17.4364 18.8675C16.1122 19.9254 14.5162 20.588 12.8321 20.779C11.148 20.9699 9.44422 20.6814 7.91685 19.9466C6.38949 19.2119 5.10064 18.0608 4.19865 16.6258C3.29667 15.1909 2.81821 13.5304 2.81836 11.8355ZM11.8184 7.83545C12.0836 7.83545 12.3379 7.94081 12.5255 8.12835C12.713 8.31588 12.8184 8.57024 12.8184 8.83545V10.8355H14.8184C15.0836 10.8355 15.3379 10.9408 15.5255 11.1283C15.713 11.3159 15.8184 11.5702 15.8184 11.8355C15.8184 12.1007 15.713 12.355 15.5255 12.5426C15.3379 12.7301 15.0836 12.8355 14.8184 12.8355H12.8184V14.8355C12.8184 15.1007 12.713 15.355 12.5255 15.5426C12.3379 15.7301 12.0836 15.8355 11.8184 15.8355C11.5531 15.8355 11.2988 15.7301 11.1113 15.5426C10.9237 15.355 10.8184 15.1007 10.8184 14.8355V12.8355H8.81836C8.55314 12.8355 8.29879 12.7301 8.11125 12.5426C7.92372 12.355 7.81836 12.1007 7.81836 11.8355C7.81836 11.5702 7.92372 11.3159 8.11125 11.1283C8.29879 10.9408 8.55314 10.8355 8.81836 10.8355H10.8184V8.83545C10.8184 8.57024 10.9237 8.31588 11.1113 8.12835C11.2988 7.94081 11.5531 7.83545 11.8184 7.83545Z" fill="#1D74D8"/>
</g>
</svg>
